<svg id="Layer_1" data-name="Layer 1" xmlns="http://www.w3.org/2000/svg" viewBox="0 0 80.50847 80.50847"><defs><style>.cls-1{fill:#1e63c5;}.cls-2{fill:#0a496b;}</style></defs><title>about-icon-education</title><circle class="cls-1" cx="40.25424" cy="40.25424" r="40.25424"/><path class="cls-2" d="M76.24777,31.26886L41.34634,17.67021a0.84881,0.84881,0,0,0-.61653,0L5.82856,31.26886a0.849,0.849,0,0,0,0,1.58212l13.19974,5.143-0.85057,8.02977c-0.00315.02952-.04228,0.0592-0.04228,0.089-0.00107,2.47994,2.26867,4.40943,7.37167,5.73592v5.40434c-1.0935.58667-1.8336,2.3401-1.8336,4.59419,0,2.328,1.87583,6.82677,1.95484,7.01713a0.85965,0.85965,0,0,0,1.58227,0c0.079-.19036,1.78093-4.68914,1.78093-7.01713,0-2.2541-.56845-4.00757-2.02645-4.59421V52.26131a70.70129,70.70129,0,0,0,14.07031,1.41161h0.03582A62.33791,62.33791,0,0,0,56.3913,51.94651c4.98464-1.32327,7.51261-3.28911,7.5136-5.78608,0-.03-0.00149-0.0743-0.00464-0.10414l-0.85233-8.05505,13.19984-5.14666A0.85163,0.85163,0,0,0,76.24777,31.26886ZM19.834,46.15362L20.61182,38.633l4.8953,1.91467v9.52554C21.86212,49.05834,19.87008,47.68589,19.834,46.15362Zm6.59709,19.97321a16.35969,16.35969,0,0,1-1.022-4.27956c0-2.03946.75947-3.10819,1.02213-3.10819s1.02222,1.06873,1.02222,3.10819A16.369,16.369,0,0,1,26.43106,66.12683ZM62.20637,46.1712c-0.03947,1.54729-2.3129,3.02641-6.25086,4.07176a60.883,60.883,0,0,1-14.8841,1.60746H41.03609a69.151,69.151,0,0,1-14.071-1.34073V41.20924l13.60713,5.24038a1.31561,1.31561,0,0,0,.387.05787,1.06867,1.06867,0,0,0,.34766-0.05787L61.38824,38.633Zm-21.1683-1.42392L28.447,39.84142l12.9952-7.03488A0.849,0.849,0,1,0,40.634,31.3133l-14.261,7.72L8.47542,32.05991,41.03808,19.37247,73.6009,32.05991Z"/></svg>