<svg id="Layer_1" data-name="Layer 1" xmlns="http://www.w3.org/2000/svg" viewBox="0 0 80.50847 80.50847"><defs><style>.cls-1{fill:#f6dc0a;}.cls-2{fill:#bc8200;}</style></defs><title>about-icon-skills</title><circle class="cls-1" cx="40.25424" cy="40.25424" r="40.25424"/><path class="cls-2" d="M15.95206,33.69591v4.5197c0,0.978-.29368,1.77071-1.17474,1.77071v1.90293c0.88105,0,1.17474.793,1.17474,1.771v4.54609a4.03972,4.03972,0,0,0,4.2034,4.0812h1.6703V50.23175h-1.6703A1.79744,1.79744,0,0,1,18.59522,48.18V43.31667a2.33562,2.33562,0,0,0-1.21575-2.37873,2.33587,2.33587,0,0,0,1.21575-2.37873V33.66953a1.68849,1.68849,0,0,1,1.56024-1.93991h1.6703V29.38014h-1.6703A4.24179,4.24179,0,0,0,15.95206,33.69591Z" transform="translate(-0.66102)"/><path class="cls-2" d="M65.87845,38.21562v-4.5197a4.22717,4.22717,0,0,0-4.18528-4.31577H60.00476v2.34948h1.68842a1.67667,1.67667,0,0,1,1.54211,1.93991v4.88968A2.33587,2.33587,0,0,0,64.451,40.93794a2.33562,2.33562,0,0,0-1.21575,2.37873V48.18c0,1.18937-.64356,2.0518-1.54211,2.0518H60.00476v2.05579h1.68842a4.025,4.025,0,0,0,4.18528-4.0812V43.66026c0-.978.29368-1.771,1.17474-1.771V39.98633C66.17213,39.98633,65.87845,39.19361,65.87845,38.21562Z" transform="translate(-0.66102)"/><polygon class="cls-2" points="52.394 66.381 52.392 66.378 52.388 66.385 52.394 66.381"/><path class="cls-2" d="M59.44723,62.69089l-0.03354.01936L59.2184,62.372l-0.004-.007L30.274,12.23885l-0.001-.00174-0.001-.00172L27.84259,8.02751l-6.35846,3.67106,31.56893,54.679c0.00281-.01007.00511-0.02447,0.03153-0.0036l7.76207,6.107-1.40049-9.763A0.05168,0.05168,0,0,1,59.44723,62.69089ZM23.49,12.236l3.81507-2.20263,1.46842,2.54339-3.81507,2.20263Zm2.20263,3.81509,2.03469-1.17474,27.9,48.32428,0.50868-.29368-27.9-48.32428,1.2717-.73421,27.9,48.32428L53.59272,64.3754ZM57.41087,67.936l-3.00455-2.33472,3.70252-2.13766,0.51943,3.76952Z" transform="translate(-0.66102)"/><path class="cls-2" d="M59.44723,62.69089l0.01859-.01074A0.02326,0.02326,0,0,0,59.44723,62.69089Z" transform="translate(-0.66102)"/></svg>