<svg id="Layer_1" data-name="Layer 1" xmlns="http://www.w3.org/2000/svg" viewBox="0 0 80.50847 80.50847"><defs><style>.cls-1{fill:#f15a2b;}.cls-2{fill:#a12f0b;}</style></defs><title>about-icon-work</title><circle class="cls-1" cx="40.25424" cy="40.25424" r="40.25424"/><path class="cls-2" d="M13.72619,59.62014a1.30075,1.30075,0,0,1-1.24193-.98849V22.52443a1.17435,1.17435,0,0,1,1.24193-.81229H32.89625V16.41995a1.69491,1.69491,0,0,1,1.715-1.63331H47.76814a1.54385,1.54385,0,0,1,1.53062,1.63331v5.29219H68.65321a0.66823,0.66823,0,0,1,.693.81229V58.63165a0.81919,0.81919,0,0,1-.693.98849h-54.927Zm53.79757-1.8225v-34.263h-53.217v34.263h14.9445V43.20447a1.05444,1.05444,0,0,1,1.03014-.71583H52.09764c0.4332,0,.48161.33923,0.48161,0.71583V57.79764h14.9445Zm-16.4025,0v-13.851h-20.412v13.851h20.412Zm-5.103-36.0855v-3.645h-9.8415v3.645h9.8415Z" transform="translate(-0.66102 0.05085)"/><path class="cls-2" d="M25.97075,49.96089a0.54675,0.54675,0,0,1-.54675.54675H16.676a0.54675,0.54675,0,0,1-.54675-0.54675v-6.561a0.54675,0.54675,0,0,1,.54675-0.54675h8.748a0.54675,0.54675,0,0,1,.54675.54675v6.561Zm-8.748-.54675h7.6545v-5.4675h-7.6545v5.4675Z" transform="translate(-0.66102 0.05085)"/><path class="cls-2" d="M65.70125,49.96089a0.54675,0.54675,0,0,1-.54675.54675h-8.748a0.54675,0.54675,0,0,1-.54675-0.54675v-6.561a0.54675,0.54675,0,0,1,.54675-0.54675h8.748a0.54675,0.54675,0,0,1,.54675.54675v6.561Zm-8.748-.54675h7.29v-5.4675h-7.29v5.4675Z" transform="translate(-0.66102 0.05085)"/><path class="cls-2" d="M25.97075,37.93239a0.54675,0.54675,0,0,1-.54675.54675H16.676a0.54675,0.54675,0,0,1-.54675-0.54675v-6.561a0.54675,0.54675,0,0,1,.54675-0.54675h8.748a0.54675,0.54675,0,0,1,.54675.54675v6.561Zm-8.748-.54675h7.6545v-5.4675h-7.6545v5.4675Z" transform="translate(-0.66102 0.05085)"/><path class="cls-2" d="M39.09275,37.93239a0.54675,0.54675,0,0,1-.54675.54675H29.798a0.54675,0.54675,0,0,1-.54675-0.54675v-6.561a0.54675,0.54675,0,0,1,.54675-0.54675h8.748a0.54675,0.54675,0,0,1,.54675.54675v6.561Zm-8.748-.54675h7.6545v-5.4675h-7.6545v5.4675Z" transform="translate(-0.66102 0.05085)"/><path class="cls-2" d="M52.21475,37.93239a0.54675,0.54675,0,0,1-.54675.54675H42.92a0.54675,0.54675,0,0,1-.54675-0.54675v-6.561A0.54675,0.54675,0,0,1,42.92,30.82464h8.748a0.54675,0.54675,0,0,1,.54675.54675v6.561Zm-8.748-.54675h7.6545v-5.4675h-7.6545v5.4675Z" transform="translate(-0.66102 0.05085)"/><path class="cls-2" d="M65.70125,37.93239a0.54675,0.54675,0,0,1-.54675.54675h-8.748a0.54675,0.54675,0,0,1-.54675-0.54675v-6.561a0.54675,0.54675,0,0,1,.54675-0.54675h8.748a0.54675,0.54675,0,0,1,.54675.54675v6.561Zm-8.748-.54675h7.29v-5.4675h-7.29v5.4675Z" transform="translate(-0.66102 0.05085)"/></svg>