<svg id="Layer_1" data-name="Layer 1" xmlns="http://www.w3.org/2000/svg" viewBox="0 0 364.67004 406.60843"><defs><style>.cls-1{fill:#231f20;}</style></defs><title>party-icon</title><polygon class="cls-1" points="267.493 192.826 271.084 182.96 286.288 189.558 284.663 196.947 267.493 192.826"/><polygon class="cls-1" points="99.933 247.649 89.434 247.649 90.434 231.105 97.933 230.105 99.933 247.649"/><polygon class="cls-1" points="99.933 189.086 89.434 189.086 90.434 172.542 97.933 171.542 99.933 189.086"/><polygon class="cls-1" points="293.841 96.473 295.665 106.813 279.198 108.701 276.911 101.489 293.841 96.473"/><polygon class="cls-1" points="184.519 263.455 193.611 268.705 184.473 282.532 177.479 279.649 184.519 263.455"/><polygon class="cls-1" points="136.318 298.394 139.036 308.535 122.797 311.851 119.89 304.866 136.318 298.394"/><polygon class="cls-1" points="123.834 219.831 126.552 229.973 110.313 233.289 107.406 226.304 123.834 219.831"/><polygon class="cls-1" points="193.749 112.332 187 120.375 174.969 108.975 179.024 102.587 193.749 112.332"/><polygon class="cls-1" points="220.95 226.56 210.45 226.56 211.45 210.016 218.95 209.016 220.95 226.56"/><polygon class="cls-1" points="364.67 273.677 354.171 273.677 355.171 257.133 362.67 256.133 364.67 273.677"/><polygon class="cls-1" points="343.511 56.927 352.603 62.177 343.465 76.004 336.471 73.121 343.511 56.927"/><polygon class="cls-1" points="248.506 9.745 241.757 17.788 229.727 6.388 233.781 0 248.506 9.745"/><polygon class="cls-1" points="302.191 229.838 299.857 223.425 310.184 220.358 312.462 224.716 302.191 229.838"/><polygon class="cls-1" points="81.799 287.273 79.465 280.859 89.792 277.792 92.07 282.151 81.799 287.273"/><polygon class="cls-1" points="79.163 46.217 76.828 39.804 87.156 36.737 89.434 41.095 79.163 46.217"/><polygon class="cls-1" points="61.42 207.653 59.086 201.24 69.413 198.173 71.691 202.531 61.42 207.653"/><polygon class="cls-1" points="129.742 275.579 124.514 279.966 118.1 271.311 121.416 267.679 129.742 275.579"/><polygon class="cls-1" points="141.553 192.954 136.325 197.341 129.911 188.686 133.228 185.054 141.553 192.954"/><polygon class="cls-1" points="35.443 180.572 40.671 184.959 33.261 192.779 29.109 190.144 35.443 180.572"/><polygon class="cls-1" points="83.684 202.913 88.912 207.299 81.502 215.119 77.35 212.484 83.684 202.913"/><polygon class="cls-1" points="303.184 279.966 308.412 284.353 301.002 292.173 296.85 289.538 303.184 279.966"/><polygon class="cls-1" points="65.957 250.029 71.185 254.416 63.775 262.236 59.623 259.601 65.957 250.029"/><polygon class="cls-1" points="209.828 303.201 216.549 302.016 217.777 312.719 213.089 314.205 209.828 303.201"/><polygon class="cls-1" points="208.695 186.676 208.695 193.5 197.941 192.85 197.291 187.976 208.695 186.676"/><polygon class="cls-1" points="250.759 254.49 245.531 258.877 239.116 250.221 242.433 246.59 250.759 254.49"/><polygon class="cls-1" points="34.93 43.233 29.702 47.62 23.288 38.965 26.604 35.333 34.93 43.233"/><polygon class="cls-1" points="334.16 185.133 323.661 185.133 324.661 168.589 332.16 167.589 334.16 185.133"/><polygon class="cls-1" points="271.681 246.34 269.347 239.927 279.675 236.86 281.953 241.218 271.681 246.34"/><polygon class="cls-1" points="272.674 296.469 277.902 300.856 270.492 308.675 266.34 306.04 272.674 296.469"/><polygon class="cls-1" points="107.06 292.29 112.288 296.677 104.878 304.497 100.726 301.862 107.06 292.29"/><polygon class="cls-1" points="220.249 270.993 215.021 275.379 208.607 266.724 211.923 263.093 220.249 270.993"/><polygon class="cls-1" points="25.245 102.062 20.017 106.449 13.602 97.793 16.919 94.162 25.245 102.062"/><polygon class="cls-1" points="151.764 233.056 156.151 238.284 147.496 244.699 143.864 241.382 151.764 233.056"/><polygon class="cls-1" points="101.69 261.858 106.077 267.086 97.421 273.501 93.79 270.184 101.69 261.858"/><polygon class="cls-1" points="52.663 220.567 59.255 222.334 55.844 232.553 50.968 231.919 52.663 220.567"/><polygon class="cls-1" points="264.433 141.456 271.154 140.271 272.381 150.974 267.693 152.461 264.433 141.456"/><polygon class="cls-1" points="96.107 131.686 90.085 140.287 77.107 129.978 80.589 123.262 96.107 131.686"/><polygon class="cls-1" points="199.611 261.534 200.526 251.075 216.92 253.513 217.262 261.071 199.611 261.534"/><polygon class="cls-1" points="194.534 84.939 187.11 77.515 199.516 66.523 205.526 71.119 194.534 84.939"/><polygon class="cls-1" points="250.135 63.666 250.135 53.167 266.679 54.167 267.679 61.666 250.135 63.666"/><polygon class="cls-1" points="167.088 188.314 175.689 182.292 184.359 196.418 178.79 201.538 167.088 188.314"/><polygon class="cls-1" points="53.868 287.065 45.825 280.317 57.226 268.286 63.613 272.34 53.868 287.065"/><polygon class="cls-1" points="122.756 99.482 132.898 102.199 127.65 117.921 120.147 116.945 122.756 99.482"/><polygon class="cls-1" points="72.171 86.955 72.765 93.754 61.996 94.043 60.924 89.244 72.171 86.955"/><polygon class="cls-1" points="217.789 164.158 223.974 161.273 227.929 171.294 223.786 173.943 217.789 164.158"/><polygon class="cls-1" points="186.856 222.46 182.942 216.87 192.123 211.234 195.452 214.854 186.856 222.46"/><polygon class="cls-1" points="84.186 38.277 80.271 32.687 89.453 27.051 92.781 30.672 84.186 38.277"/><polygon class="cls-1" points="180.374 39.997 173.575 39.402 175.16 28.746 180.073 28.523 180.374 39.997"/><polygon class="cls-1" points="151.31 152.845 153.076 146.253 163.295 149.664 162.661 154.54 151.31 152.845"/><polygon class="cls-1" points="128.231 76.454 134.416 73.57 138.372 83.591 134.229 86.24 128.231 76.454"/><polygon class="cls-1" points="105.912 78.911 106.507 85.71 95.737 86 94.665 81.2 105.912 78.911"/><polygon class="cls-1" points="117.927 30.234 114.012 24.643 123.194 19.008 126.523 22.628 117.927 30.234"/><polygon class="cls-1" points="161.972 68.411 168.158 65.526 172.113 75.547 167.97 78.196 161.972 68.411"/><polygon class="cls-1" points="218.305 122.779 215.42 116.594 225.441 112.639 228.09 116.782 218.305 122.779"/><polygon class="cls-1" points="85.768 182.098 78.969 181.503 80.554 170.847 85.467 170.624 85.768 182.098"/><polygon class="cls-1" points="55.112 150.738 61.833 149.553 63.06 160.256 58.372 161.743 55.112 150.738"/><polygon class="cls-1" points="229.694 81.399 229.694 88.224 218.94 87.574 218.29 82.699 229.694 81.399"/><path d="M28.36751,402.3435a1.21169,1.21169,0,0,0,.45956,1.3602l9.70575,6.796a1.21169,1.21169,0,0,0,1.43535-.03337l9.1931-7.09552-19.46056-5.2144Z" transform="translate(-28.31031 -4.11042)"/><polygon points="95.347 341.762 24.115 322.676 19.424 337.411 79.966 353.634 95.347 341.762"/><path d="M71.079,273.38776a1.21168,1.21168,0,0,0-1.84955.62491l-6.02929,18.93554L121.215,308.49333Z" transform="translate(-28.31031 -4.11042)"/><path d="M146.58408,328.177a1.21165,1.21165,0,0,0-.04533-1.95172l-2.589-1.81281-83.63273-22.4095L55.30877,317.732l77.79947,20.846Z" transform="translate(-28.31031 -4.11042)"/><polygon points="4.274 384.991 30.302 391.966 45.683 380.095 8.965 370.256 4.274 384.991"/><polygon points="16.54 346.466 11.849 361.201 55.134 372.8 70.515 360.928 16.54 346.466"/></svg>