<?xml version="1.0" encoding="utf-8"?>
<!-- Generator: Adobe Illustrator 19.2.0, SVG Export Plug-In . SVG Version: 6.00 Build 0)  -->
<svg version="1.1" id="Layer_1" xmlns="http://www.w3.org/2000/svg" xmlns:xlink="http://www.w3.org/1999/xlink" x="0px" y="0px"
	 viewBox="0 0 181.5 181.5" style="enable-background:new 0 0 181.5 181.5;" xml:space="preserve">
<style type="text/css">
	.st0{fill:#FFFFFF;}
	.st1{fill:#214E69;}
	.st2{fill:#1B75BB;}
</style>
<title>tb-logo</title>
<circle class="st0" cx="90.8" cy="90.8" r="69.5"/>
<path class="st0" d="M90.8,181.5C40.6,181.5,0,140.9,0,90.8S40.6,0,90.8,0s90.8,40.6,90.8,90.8C181.4,140.8,140.8,181.4,90.8,181.5z
	 M90.8,6C43.9,6,6,43.9,6,90.8s37.9,84.8,84.8,84.8s84.8-37.9,84.8-84.8C175.4,44,137.5,6.1,90.8,6z"/>
<path class="st1" d="M79.6,129.8h-13c-2.8,0-5-2.2-5-5s2.2-5,5-5h3v-58H46.2c-2.5,0-4.6,2-4.6,4.6v3.4c0,2.8-2.2,5-5,5s-5-2.2-5-5
	v-3.4c0-8,6.5-14.6,14.6-14.6h33.4V129.8z"/>
<path class="st2" d="M143.8,99.7c-2.8,0-5,2.2-5,5c0,8.3-6.8,15.1-15.1,15.1h-1.5c3.2-4.2,5-9.4,5-15.1c0-10.3-6.2-19.1-15.1-23
	c1.3-3.3,1.8-6.9,1.3-10.5c-1.3-11.1-10.7-19.5-21.9-19.5c0,0,0,0,0,0h-12v10h12c0,0,0,0,0,0c6.1,0,11.2,4.6,11.9,10.6
	c0.4,3.2-0.5,6.3-2.5,8.8c-1.9,2.4-4.7,4-7.8,4.4H79.6v10h14.2l0.3,0c4.6-0.5,8.7-2.4,12.1-5.4c6.3,1.8,11,7.6,11,14.5
	c0,8.3-6.8,15.1-15.1,15.1h-3H79.6v10h19.6h3h21.5c13.8,0,25.1-11.2,25.1-25.1C148.8,101.9,146.5,99.7,143.8,99.7z"/>
</svg>
