<svg id="Layer_1" data-name="Layer 1" xmlns="http://www.w3.org/2000/svg" viewBox="0 0 181.5 181.5"><defs><style>.cls-1{fill:#fff;}.cls-2,.cls-3,.cls-4{fill:none;stroke-miterlimit:10;stroke-width:10px;}.cls-2,.cls-3{stroke:#1b75bb;}.cls-2,.cls-4{stroke-linecap:round;}.cls-4{stroke:#214e69;}</style></defs><title>tb-logo</title><circle class="cls-1" cx="90.75" cy="90.75" r="73.125"/><path class="cls-1" d="M92.75,183.5A90.75,90.75,0,1,1,183.5,92.75,90.85268,90.85268,0,0,1,92.75,183.5ZM92.75,8A84.75,84.75,0,1,0,177.5,92.75,84.84581,84.84581,0,0,0,92.75,8Z" transform="translate(-2 -2)"/><path class="cls-2" d="M101.17192,126.75h24.5196A20.05848,20.05848,0,0,0,145.75,106.69152v0" transform="translate(-2 -2)"/><path class="cls-3" d="M76.59384,126.75h27.5585a20.0585,20.0585,0,0,0,0-40.117" transform="translate(-2 -2)"/><path class="cls-3" d="M76.59384,92.64287H95.52938A17.00161,17.00161,0,0,0,93.59384,58.75H76.5941" transform="translate(-2 -2)"/><path class="cls-4" d="M38.59384,71.75V68.31055A9.56055,9.56055,0,0,1,48.15439,58.75H76.59384v68h-8" transform="translate(-2 -2)"/></svg>